<svg width="1280" height="720" xmlns="http://www.w3.org/2000/svg" xmlns:xlink="http://www.w3.org/1999/xlink" overflow="hidden"><defs><clipPath id="clip0"><rect x="0" y="0" width="1280" height="720"/></clipPath></defs><g clip-path="url(#clip0)"><rect x="0" y="0" width="1280" height="720" fill="#FFFFFF"/><path d="M404 90.5001C404 80.8351 411.835 73 421.5 73L421.5 73C431.165 73 439 80.8351 439 90.5001L439 336.5C439 346.165 431.165 354 421.5 354L421.5 354C411.835 354 404 346.165 404 336.5Z" fill="#F2F2F2" fill-rule="evenodd"/><path d="M524 90.5001C524 80.8351 531.835 73 541.5 73L541.5 73C551.165 73 559 80.8351 559 90.5001L559 336.5C559 346.165 551.165 354 541.5 354L541.5 354C531.835 354 524 346.165 524 336.5Z" fill="#F2F2F2" fill-rule="evenodd"/><path d="M408.209 102.4C403.928 93.533 407.645 82.8742 416.512 78.593L416.512 78.593C425.379 74.3118 436.038 78.0293 440.319 86.8963L556.943 328.441C561.224 337.308 557.507 347.967 548.64 352.248L548.64 352.248C539.773 356.529 529.114 352.812 524.833 343.945Z" fill="#F2F2F2" fill-rule="evenodd"/><path d="M568 91.0001C568 81.0589 576.059 73 586 73L586 73C595.941 73 604 81.0589 604 91.0001L604 336C604 345.941 595.941 354 586 354L586 354C576.059 354 568 345.941 568 336Z" fill="#F2F2F2" fill-rule="evenodd"/><path d="M655 91.0001C655 81.0589 663.059 73 673 73L673 73C682.941 73 691 81.0589 691 91.0001L691 336C691 345.941 682.941 354 673 354L673 354C663.059 354 655 345.941 655 336Z" fill="#F2F2F2" fill-rule="evenodd"/><path d="M586 354C576.059 354 568 345.941 568 336L568 336C568 326.059 576.059 318 586 318L670 318C679.941 318 688 326.059 688 336L688 336C688 345.941 679.941 354 670 354Z" fill="#F2F2F2" fill-rule="evenodd"/><path d="M701 90.5001C701 80.8351 708.835 73 718.5 73L718.5 73C728.165 73 736 80.8351 736 90.5001L736 336.5C736 346.165 728.165 354 718.5 354L718.5 354C708.835 354 701 346.165 701 336.5Z" fill="#F2F2F2" fill-rule="evenodd"/><path d="M788 91.0001C788 81.0589 796.059 73 806 73L806 73C815.941 73 824 81.0589 824 91.0001L824 336C824 345.941 815.941 354 806 354L806 354C796.059 354 788 345.941 788 336Z" fill="#F2F2F2" fill-rule="evenodd"/><path d="M721.5 233C711.835 233 704 225.165 704 215.5L704 215.5C704 205.835 711.835 198 721.5 198L806.5 198C816.165 198 824 205.835 824 215.5L824 215.5C824 225.165 816.165 233 806.5 233Z" fill="#F2F2F2" fill-rule="evenodd"/><path d="M721.5 105C711.835 105 704 97.165 704 87.5001L704 87.5001C704 77.8351 711.835 70.0001 721.5 70.0001L806.5 70.0001C816.165 70.0001 824 77.8351 824 87.5001L824 87.5001C824 97.165 816.165 105 806.5 105Z" fill="#F2F2F2" fill-rule="evenodd"/><path d="M788.019 408 438.482 406.511 404 363 824 363 788.019 408Z" fill="#F2F2F2" fill-rule="evenodd"/></g></svg>